<?xml version="1.0" encoding="utf-8"?>
<!-- Generator: Adobe Illustrator 16.0.0, SVG Export Plug-In . SVG Version: 6.00 Build 0)  -->
<!DOCTYPE svg PUBLIC "-//W3C//DTD SVG 1.1//EN" "http://www.w3.org/Graphics/SVG/1.1/DTD/svg11.dtd">
<svg version="1.1" id="Layer_1" xmlns="http://www.w3.org/2000/svg" xmlns:xlink="http://www.w3.org/1999/xlink" x="0px" y="0px"
	 width="128px" height="128px" viewBox="0 0 128 128" enable-background="new 0 0 128 128" xml:space="preserve">
<path fill="#ED4537" d="M73.059,37.525c0,5.214-4.227,9.441-9.442,9.441c-5.213,0-9.441-4.227-9.441-9.441
	c0-5.214,4.228-9.441,9.441-9.441C68.832,28.083,73.059,32.311,73.059,37.525"/>
<path fill="#F37022" d="M97.441,24.705c0,5.214-4.228,9.44-9.441,9.44s-9.44-4.226-9.44-9.44c0-5.215,4.227-9.442,9.44-9.442
	S97.441,19.49,97.441,24.705"/>
<path fill="#8A57B2" d="M49.436,24.705c0,5.214-4.228,9.44-9.442,9.44c-5.214,0-9.441-4.226-9.441-9.44
	c0-5.215,4.227-9.442,9.441-9.442C45.208,15.263,49.436,19.49,49.436,24.705"/>
<path fill="#377A65" d="M96.081,50.94c0,4.465-3.618,8.081-8.081,8.081s-8.081-3.616-8.081-8.081c0-4.464,3.618-8.081,8.081-8.081
	S96.081,46.476,96.081,50.94"/>
<path fill="#0CB14C" d="M48.075,50.94c0,4.465-3.618,8.081-8.081,8.081c-4.463,0-8.082-3.616-8.082-8.081
	c0-4.464,3.618-8.081,8.082-8.081C44.457,42.859,48.075,46.476,48.075,50.94"/>
<path fill="#5A9B5A" d="M119.998,37.636c0,4.464-3.617,8.081-8.081,8.081s-8.081-3.617-8.081-8.081c0-4.464,3.617-8.083,8.081-8.083
	S119.998,33.171,119.998,37.636"/>
<path fill="#E05F17" d="M23.31,37.636c0,4.464-3.617,8.081-8.082,8.081c-4.463,0-8.081-3.617-8.081-8.081
	c0-4.464,3.618-8.083,8.081-8.083C19.693,29.553,23.31,33.171,23.31,37.636"/>
<path fill="#9C5E9E" d="M23.31,64.218c0,4.465-3.617,8.083-8.082,8.083c-4.463,0-8.081-3.618-8.081-8.083
	c0-4.463,3.618-8.082,8.081-8.082C19.693,56.136,23.31,59.754,23.31,64.218"/>
<path fill="#2A77C4" d="M119.998,64.218c0,4.465-3.618,8.083-8.081,8.083c-4.464,0-8.081-3.618-8.081-8.083
	c0-4.463,3.617-8.082,8.081-8.082C116.38,56.136,119.998,59.754,119.998,64.218"/>
<path fill="#E03A3E" d="M117.764,90.907c0,3.228-2.618,5.846-5.847,5.846c-3.23,0-5.848-2.618-5.848-5.846
	c0-3.229,2.617-5.852,5.848-5.852C115.146,85.056,117.764,87.678,117.764,90.907"/>
<path fill="#F6821F" d="M21.077,90.907c0,3.228-2.619,5.846-5.848,5.846c-3.23,0-5.847-2.618-5.847-5.846
	c0-3.229,2.617-5.852,5.847-5.852C18.458,85.056,21.077,87.678,21.077,90.907"/>
<path fill="#009DD6" d="M45.841,104.263c0,3.229-2.616,5.844-5.847,5.844s-5.847-2.614-5.847-5.844c0-3.23,2.616-5.849,5.847-5.849
	S45.841,101.032,45.841,104.263"/>
<path fill="#9C5E9E" d="M93.07,104.263c0,2.798-2.27,5.067-5.07,5.067c-2.802,0-5.07-2.27-5.07-5.067
	c0-2.802,2.269-5.073,5.07-5.073C90.801,99.189,93.07,101.461,93.07,104.263"/>
<path fill="#F4AE00" d="M73.059,11.232c0,5.215-4.227,9.441-9.442,9.441c-5.213,0-9.441-4.226-9.441-9.441
	c0-5.214,4.228-9.441,9.441-9.441C68.832,1.791,73.059,6.018,73.059,11.232"/>
<path fill="#4087F4" d="M73.059,64.218c0,5.217-4.227,9.442-9.442,9.442c-5.213,0-9.441-4.226-9.441-9.442
	c0-5.214,4.228-9.441,9.441-9.441C68.832,54.777,73.059,59.003,73.059,64.218"/>
<path fill="#7676CE" d="M87.112,76.928c-1.127-1.901-3.583-2.53-5.485-1.401L63.32,86.378L45.193,75.633
	c-1.904-1.13-4.358-0.501-5.486,1.401c-1.127,1.901-0.501,4.358,1.402,5.486l18.296,10.844v27.481c0,2.212,1.793,4.004,4.003,4.004
	c2.212,0,4.004-1.792,4.004-4.004v-0.091c0-0.007,0.002-0.011,0.002-0.014V93.26l18.297-10.847
	C87.612,81.288,88.24,78.832,87.112,76.928"/>
<path fill="#7676CE" d="M95.08,77.643c0,3.911-3.169,7.079-7.079,7.079s-7.081-3.168-7.081-7.079c0-3.909,3.171-7.081,7.081-7.081
	S95.08,73.733,95.08,77.643"/>
<path fill="#7676CE" d="M47.074,77.643c0,3.911-3.169,7.079-7.079,7.079c-3.911,0-7.081-3.168-7.081-7.079
	c0-3.909,3.17-7.081,7.081-7.081C43.905,70.562,47.074,73.733,47.074,77.643"/>
</svg>
